# xmcd
# Track frame offsets:
# 150
# 13797
# 23614
# 39326
# 53038
# 71305
# 83300
# 99594
# 115461
# 134191
# 144865
# 161285
# 177029
# 183949
#
# Disc length: 2634 seconds
# Revision: 0
# Processed by: cddbd v1.4PL0 Copyright (c) Steve Scherf et al.
# Submitted via: VisiTrax 2.9.5.181 - For more info visit www.synapsa.com
#
DISCID=a60a480e
DTITLE=Garth Brooks - Garth Brooks and The Magic Of Christmas
DYEAR=1900
DGENRE=Country Christmas
TTITLE0=It's the Most Wonderful Time of the Year
TTITLE1=Let It Snow! Let It Snow! Let It Snow!
TTITLE2=The Christmas Song
TTITLE3=White Christmas
TTITLE4=Baby Jesus Is Born
TTITLE5=God Rest Ye Merry Gentlemen
TTITLE6=Winter Wonderland
TTITLE7=Sleigh Ride
TTITLE8=Have Yourself a Merry Little Christmas
TTITLE9=(There's No Place Like) Home for the Holidays
TTITLE10=Silver Bells
TTITLE11=Go Tell It on the Mountain
TTITLE12=The Wise Men's Journey [Instrumental]
TTITLE13=O Little Town of Bethlehem
EXTD=
EXTT0=
EXTT1=
EXTT2=
EXTT3=
EXTT4=
EXTT5=
EXTT6=
EXTT7=
EXTT8=
EXTT9=
EXTT10=
EXTT11=
EXTT12=
EXTT13=
PLAYORDER=
